<svg xmlns="http://www.w3.org/2000/svg" xmlns:xlink="http://www.w3.org/1999/xlink" width="1500" zoomAndPan="magnify" viewBox="0 0 1125 452.25" height="603" preserveAspectRatio="xMidYMid meet" version="1.0"><defs><g/><clipPath id="9218be4e5e"><path d="M 88.132812 98.78125 L 202.792969 98.78125 L 202.792969 222.613281 L 88.132812 222.613281 Z M 88.132812 98.78125 " clip-rule="nonzero"/></clipPath></defs><g fill="#000000" fill-opacity="1"><g transform="translate(7.36306, 290.446798)"><g><path d="M 138.238281 6.113281 C 176.796875 6.113281 209.238281 -7.054688 236.511719 -34.324219 C 263.3125 -61.125 276.949219 -93.570312 276.949219 -132.125 C 276.949219 -170.210938 263.3125 -203.128906 236.042969 -230.398438 C 208.769531 -257.671875 176.324219 -271.304688 138.238281 -271.304688 C 100.152344 -271.304688 67.710938 -257.671875 40.4375 -230.398438 C 13.164062 -203.128906 0 -170.210938 0 -132.125 C 0 -94.039062 13.164062 -61.597656 40.4375 -34.324219 C 67.238281 -7.054688 99.683594 6.113281 138.238281 6.113281 Z M 138.238281 -49.371094 C 114.730469 -49.371094 95.449219 -57.363281 79.464844 -73.351562 C 63.476562 -89.339844 55.484375 -109.085938 55.484375 -132.125 C 55.484375 -155.636719 63.476562 -175.386719 79.464844 -191.371094 C 95.449219 -207.359375 114.730469 -215.824219 138.238281 -215.824219 C 161.277344 -215.824219 181.027344 -207.359375 197.484375 -190.902344 C 213.472656 -174.445312 221.933594 -154.695312 221.933594 -132.125 C 221.933594 -109.085938 213.472656 -89.339844 197.484375 -73.351562 C 181.027344 -57.363281 161.277344 -49.371094 138.238281 -49.371094 Z M 138.238281 -49.371094 "/></g></g></g><g fill="#000000" fill-opacity="1"><g transform="translate(301.696274, 290.446798)"><g><path d="M 0 0 L 55.484375 0 L 55.484375 -129.777344 C 55.484375 -145.761719 59.246094 -160.339844 66.769531 -173.035156 C 74.761719 -186.199219 85.578125 -196.542969 98.742188 -204.539062 C 112.847656 -213 129.777344 -216.761719 149.054688 -215.824219 L 149.054688 -271.777344 C 126.953125 -272.714844 106.265625 -268.957031 87.457031 -260.960938 C 76.171875 -256.257812 65.359375 -250.148438 55.484375 -242.152344 L 55.484375 -267.542969 L 0 -267.542969 Z M 0 0 "/></g></g></g><g fill="#000000" fill-opacity="1"><g transform="translate(468.140276, 290.446798)"><g><path d="M 0 -292.933594 L 55.484375 -292.933594 L 55.484375 -348.417969 L 0 -348.417969 Z M 0.941406 0 L 56.425781 0 L 56.425781 -267.542969 L 0.941406 -267.542969 Z M 0.941406 0 "/></g></g></g><g fill="#000000" fill-opacity="1"><g transform="translate(541.958602, 290.446798)"><g><path d="M 140.121094 145.292969 C 165.039062 145.292969 188.082031 139.179688 209.238281 126.484375 C 230.398438 114.257812 247.324219 97.800781 259.550781 76.171875 C 271.777344 55.011719 277.890625 31.972656 277.890625 7.523438 L 277.890625 -267.074219 L 222.40625 -267.074219 L 222.40625 -242.625 C 212.0625 -250.148438 201.714844 -256.257812 190.902344 -260.960938 C 172.5625 -267.542969 155.167969 -271.304688 138.238281 -271.304688 C 112.847656 -271.304688 89.808594 -264.722656 69.121094 -252.5 C 48.429688 -240.742188 31.503906 -223.816406 18.335938 -202.1875 C 6.113281 -180.558594 0 -157.515625 0 -132.597656 C 0 -107.207031 6.113281 -84.167969 18.335938 -63.476562 C 31.035156 -41.847656 47.960938 -24.921875 69.589844 -12.695312 C 91.21875 0 114.257812 6.113281 138.238281 6.113281 C 156.105469 6.113281 173.972656 2.820312 190.902344 -4.230469 C 201.246094 -7.992188 212.0625 -14.105469 222.40625 -22.097656 L 222.40625 7.523438 C 222.40625 22.570312 218.644531 36.207031 211.121094 48.429688 C 203.597656 61.125 193.722656 71 181.027344 78.523438 C 167.863281 86.046875 154.226562 89.808594 140.121094 89.808594 C 125.542969 89.808594 111.90625 86.046875 98.742188 78.523438 C 86.515625 71.941406 76.171875 61.597656 68.648438 48.429688 C 60.1875 33.382812 56.425781 16.925781 57.835938 0 L 2.820312 0 C 0.941406 28.210938 7.054688 53.601562 21.160156 76.644531 C 33.382812 98.273438 50.3125 114.730469 71.941406 126.953125 C 94.511719 139.179688 117.082031 145.292969 140.121094 145.292969 Z M 138.238281 -49.371094 C 123.191406 -49.371094 109.558594 -52.664062 96.863281 -60.1875 C 84.167969 -67.710938 73.820312 -77.582031 66.296875 -90.75 C 58.773438 -103.914062 55.484375 -117.550781 55.484375 -132.597656 C 55.484375 -147.644531 58.773438 -161.75 66.296875 -174.445312 C 73.820312 -187.140625 84.167969 -197.015625 97.332031 -204.539062 C 110.027344 -212.0625 123.664062 -215.824219 138.238281 -215.824219 C 153.285156 -215.824219 166.921875 -212.0625 180.085938 -204.539062 C 192.78125 -197.015625 203.128906 -186.667969 210.648438 -173.972656 C 218.171875 -161.277344 221.933594 -147.644531 221.933594 -132.597656 C 221.933594 -118.019531 218.171875 -103.914062 210.648438 -90.75 C 203.597656 -78.054688 193.253906 -67.710938 180.085938 -60.1875 C 166.921875 -52.664062 153.285156 -49.371094 138.238281 -49.371094 Z M 138.238281 -49.371094 "/></g></g></g><g fill="#000000" fill-opacity="1"><g transform="translate(837.232183, 290.446798)"><g><path d="M 138.238281 5.640625 C 157.515625 5.640625 174.914062 2.351562 190.902344 -4.703125 C 201.714844 -8.933594 212.0625 -15.046875 222.40625 -22.570312 L 222.40625 0 L 277.890625 0 L 277.890625 -267.542969 L 222.40625 -267.542969 L 222.40625 -243.09375 C 212.0625 -250.617188 201.714844 -256.257812 190.902344 -260.960938 C 174.445312 -268.015625 157.046875 -271.777344 138.238281 -271.777344 C 112.847656 -271.777344 89.808594 -265.195312 69.121094 -252.96875 C 47.492188 -240.273438 30.5625 -223.34375 18.335938 -202.1875 C 6.113281 -180.558594 0 -157.046875 0 -132.597656 C 0 -107.207031 6.113281 -84.167969 18.335938 -63.476562 C 31.035156 -41.378906 47.960938 -24.449219 69.121094 -12.695312 C 90.75 -0.46875 113.789062 5.640625 138.238281 5.640625 Z M 138.238281 -49.839844 C 123.191406 -49.839844 109.558594 -53.132812 96.863281 -60.65625 C 84.167969 -68.179688 73.820312 -78.054688 66.296875 -91.21875 C 58.773438 -104.382812 55.484375 -118.492188 55.484375 -132.597656 C 55.484375 -147.644531 58.773438 -161.75 66.296875 -174.914062 C 74.292969 -188.550781 84.636719 -198.894531 96.863281 -205.476562 C 108.144531 -212.53125 122.253906 -216.292969 138.238281 -216.292969 C 153.285156 -216.292969 166.921875 -212.53125 180.085938 -205.007812 C 192.3125 -197.484375 202.1875 -187.609375 210.648438 -174.445312 C 218.171875 -162.21875 221.933594 -148.113281 221.933594 -132.597656 C 221.933594 -117.550781 218.171875 -103.914062 210.648438 -90.75 C 203.597656 -78.523438 193.253906 -68.648438 180.085938 -60.65625 C 166.921875 -53.132812 153.285156 -49.839844 138.238281 -49.839844 Z M 138.238281 -49.839844 "/></g></g></g><g clip-path="url(#9218be4e5e)"><path fill="#000000" d="M 149.871094 218.191406 L 149.871094 103.203125 C 149.871094 100.761719 147.898438 98.78125 145.464844 98.78125 C 143.03125 98.78125 141.054688 100.761719 141.054688 103.203125 L 141.054688 218.191406 C 141.054688 220.632812 143.03125 222.613281 145.464844 222.613281 C 147.898438 222.613281 149.871094 220.632812 149.871094 218.191406 Z M 167.5 196.078125 L 167.5 125.316406 C 167.5 122.875 165.527344 120.894531 163.09375 120.894531 C 160.660156 120.894531 158.6875 122.875 158.6875 125.316406 L 158.6875 196.078125 C 158.6875 198.519531 160.660156 200.5 163.09375 200.5 C 165.527344 200.5 167.5 198.519531 167.5 196.078125 Z M 132.242188 196.078125 L 132.242188 125.316406 C 132.242188 122.875 130.265625 120.894531 127.832031 120.894531 C 125.402344 120.894531 123.425781 122.875 123.425781 125.316406 L 123.425781 196.078125 C 123.425781 198.519531 125.402344 200.5 127.832031 200.5 C 130.265625 200.5 132.242188 198.519531 132.242188 196.078125 Z M 185.132812 182.808594 L 185.132812 138.582031 C 185.132812 136.144531 183.15625 134.160156 180.722656 134.160156 C 178.292969 134.160156 176.316406 136.144531 176.316406 138.582031 L 176.316406 182.808594 C 176.316406 185.25 178.292969 187.234375 180.722656 187.234375 C 183.15625 187.234375 185.132812 185.25 185.132812 182.808594 Z M 114.609375 182.808594 L 114.609375 138.582031 C 114.609375 136.144531 112.636719 134.160156 110.203125 134.160156 C 107.769531 134.160156 105.796875 136.144531 105.796875 138.582031 L 105.796875 182.808594 C 105.796875 185.25 107.769531 187.234375 110.203125 187.234375 C 112.636719 187.234375 114.609375 185.25 114.609375 182.808594 Z M 96.980469 173.964844 L 96.980469 147.429688 C 96.980469 144.988281 95.007812 143.007812 92.574219 143.007812 C 90.140625 143.007812 88.164062 144.988281 88.164062 147.429688 L 88.164062 173.964844 C 88.164062 176.40625 90.140625 178.386719 92.574219 178.386719 C 95.007812 178.386719 96.980469 176.40625 96.980469 173.964844 Z M 202.761719 173.964844 L 202.761719 147.429688 C 202.761719 144.988281 200.789062 143.007812 198.355469 143.007812 C 195.921875 143.007812 193.945312 144.988281 193.945312 147.429688 L 193.945312 173.964844 C 193.945312 176.40625 195.921875 178.386719 198.355469 178.386719 C 200.789062 178.386719 202.761719 176.40625 202.761719 173.964844 Z M 202.761719 173.964844 " fill-opacity="1" fill-rule="evenodd"/></g></svg>